<?xml version="1.0" encoding="UTF-8"?>
<svg id="Layer_1" xmlns="http://www.w3.org/2000/svg" version="1.1" viewBox="0 0 283.1 84.6">
  <!-- Generator: Adobe Illustrator 29.8.2, SVG Export Plug-In . SVG Version: 2.1.1 Build 3)  -->
  <defs>
    <style>
      .st0 {
        fill: #1930ab;
      }

      .st1 {
        fill: #c36;
      }

      .st2 {
        fill: #0d1233;
      }
    </style>
  </defs>
  <path class="st0" d="M183.8,33.4v1.5l-15.5,23.8c-3.9,2-8.3,3.1-13,3.1h-44.7v18.9h-21.3v-7.5c9.3-6.9,15.4-17.9,15.4-30.4s0-1.5,0-2.2h50.7c4,0,7.2-3.3,7.2-7.2s-3.2-7.2-7.2-7.2h-54.4c-2.7-5.5-6.8-10.3-11.7-13.9v-7.3h66.2c15.7,0,28.5,12.8,28.5,28.5h-.2Z"/>
  <path class="st2" d="M189.2,80.8h89.6L226.6,9.8c-2.9-3.9-7.5-6.2-12.4-6-4.9,0-9.3,2.7-12,6.7l-45.6,70.2h25.7l32.6-50.3,21.1,28.7h-34l-13,21.6h.2Z"/>
  <path class="st2" d="M64.3,80.8H8.7V26.7h21.6v32.5h34c9,0,16.4-7.3,16.4-16.4s-7.3-16.4-16.4-16.4H30.5V4.9h33.7c20.9,0,37.9,17,37.9,37.9s-17,37.9-37.9,37.9h.1Z"/>
  <circle class="st1" cx="19.5" cy="15" r="8.6"/>
</svg>